<svg xmlns="http://www.w3.org/2000/svg" xmlns:xlink="http://www.w3.org/1999/xlink" width="44" height="26"><defs><linearGradient id="prefix__prefix__a" x1="-.118" y1=".851" x2="1.844" y2="-.482" gradientUnits="objectBoundingBox"><stop offset="0" stop-color="#90c278"/><stop offset=".021" stop-color="#81c08f"/><stop offset=".052" stop-color="#70bfac"/><stop offset=".083" stop-color="#64bdc1"/><stop offset=".113" stop-color="#5dbdcd"/><stop offset=".143" stop-color="#5bbdd2"/><stop offset=".181" stop-color="#60a3c8"/><stop offset=".227" stop-color="#658bbe"/><stop offset=".255" stop-color="#6783bb"/><stop offset=".279" stop-color="#6c73b0"/><stop offset=".33" stop-color="#75569d"/><stop offset=".375" stop-color="#7b4591"/><stop offset=".408" stop-color="#7e3f8d"/><stop offset=".566" stop-color="#e12d85"/><stop offset=".711" stop-color="#e23f5f"/><stop offset=".741" stop-color="#e3445a"/><stop offset=".779" stop-color="#e5544c"/><stop offset=".821" stop-color="#ea6f36"/><stop offset=".86" stop-color="#f08e1d"/><stop offset="1" stop-color="#f1c614"/></linearGradient><linearGradient id="prefix__prefix__b" x1="-.78" y1="1.253" x2=".843" y2=".26" xlink:href="#prefix__prefix__a"/><linearGradient id="prefix__prefix__c" x1=".188" y1=".806" x2="5.827" y2="-9.582" xlink:href="#prefix__prefix__a"/><linearGradient id="prefix__prefix__d" x1="-3.258" y1="6.841" x2="2.394" y2="-3.071" xlink:href="#prefix__prefix__a"/><linearGradient id="prefix__prefix__e" x1="-.079" y1=".95" x2=".967" y2="-.13" xlink:href="#prefix__prefix__a"/><linearGradient id="prefix__prefix__f" x1="-6.911" y1="53.987" x2="4.442" y2="-27.951" xlink:href="#prefix__prefix__a"/><linearGradient id="prefix__prefix__g" x1="-1.251" y1="1.556" x2=".978" y2=".227" xlink:href="#prefix__prefix__a"/><linearGradient id="prefix__prefix__h" x1="-.943" y1="5.523" x2=".757" y2=".12" xlink:href="#prefix__prefix__a"/><linearGradient id="prefix__prefix__i" x1="-1.114" y1=".767" x2="1.671" y2=".227" xlink:href="#prefix__prefix__a"/><linearGradient id="prefix__prefix__j" x1=".5" y1="-2.838" x2=".5" y2="2.163" xlink:href="#prefix__prefix__a"/><linearGradient id="prefix__prefix__l" x1="-.011" y1=".913" x2="1.017" y2=".05" xlink:href="#prefix__prefix__a"/><style>.prefix__prefix__e{fill:#fff}</style></defs><path d="M490.548 177.345a6.191 6.191 0 00-.878 2.647.42.42 0 00.838.073 6.167 6.167 0 01.513-1.84 3.129 3.129 0 011.058-1.312 2.244 2.244 0 00-.249-.015 1.957 1.957 0 00-1.282.447z" transform="translate(-455.478 -174.705)" fill="url(#prefix__prefix__a)"/><path d="M509.054 172.122a2.6 2.6 0 00-2.057-.865h-.015a2.776 2.776 0 01.773.619 3.166 3.166 0 01.374.536 1.6 1.6 0 01.289.26 4.28 4.28 0 01.6 2.872.42.42 0 00.359.474.412.412 0 00.058 0 .421.421 0 00.416-.363 5.046 5.046 0 00-.797-3.533z" transform="translate(-469.064 -170.278)" fill="url(#prefix__prefix__b)"/><path d="M482.711 191.728a.423.423 0 00.455-.381l-.837-.073a.42.42 0 00.382.454z" transform="translate(-449.717 -185.986)" fill="url(#prefix__prefix__c)"/><path d="M509.094 191.175a.42.42 0 00.359.473.406.406 0 00.058 0 .421.421 0 00.416-.363l-.417-.058z" transform="translate(-470.718 -185.908)" fill="url(#prefix__prefix__d)"/><path class="prefix__prefix__e" d="M33.962 3.522a2.744 2.744 0 011.683-1.6 3.14 3.14 0 011.489-.844 3.226 3.226 0 00-.782-.094c-2.665 0-3.612 2.818-3.74 4.309l.837.073a6.169 6.169 0 01.513-1.844z"/><path d="M483.684 173.8a2.744 2.744 0 011.683-1.6 3.14 3.14 0 011.489-.844 3.226 3.226 0 00-.782-.094c-2.665 0-3.612 2.818-3.74 4.309l.837.073a6.169 6.169 0 01.513-1.844z" transform="translate(-449.722 -170.278)" fill="url(#prefix__prefix__e)"/><path class="prefix__prefix__e" d="M38.375 5.266l.417.057z"/><path d="M509.108 191.171l.417.057z" transform="translate(-470.733 -185.905)" fill="url(#prefix__prefix__f)"/><path class="prefix__prefix__e" d="M38.428 1.869a2.457 2.457 0 00-.5-.049 2.488 2.488 0 00-.8.129 1.578 1.578 0 01.645.446 4.277 4.277 0 01.6 2.872l.417.058.417.058a5.079 5.079 0 00-.779-3.514z"/><path d="M504.615 175.212a2.457 2.457 0 00-.5-.049 2.488 2.488 0 00-.8.129 1.578 1.578 0 01.645.446 4.277 4.277 0 01.6 2.872l.417.058.417.058a5.079 5.079 0 00-.779-3.514z" transform="translate(-466.187 -173.343)" fill="url(#prefix__prefix__g)"/><path class="prefix__prefix__e" d="M36.352 1.82a2.192 2.192 0 01.776.129 2.488 2.488 0 01.8-.129 2.456 2.456 0 01.5.049l-.019-.025a2.432 2.432 0 00-1.276-.771 3.14 3.14 0 00-1.489.844 2.53 2.53 0 01.708-.097z"/><path d="M497.131 172.44a2.192 2.192 0 01.776.129 2.488 2.488 0 01.8-.129 2.456 2.456 0 01.5.049l-.019-.025a2.432 2.432 0 00-1.276-.771 3.14 3.14 0 00-1.489.844 2.53 2.53 0 01.708-.097z" transform="translate(-460.779 -170.62)" fill="url(#prefix__prefix__h)"/><path d="M522.009 205.553a.455.455 0 01-.455-.473l.541-14.285a.455.455 0 01.72-.353l1.012.722a.494.494 0 01.045.037 1.96 1.96 0 01.626 1.518l-.415 10.261a2.085 2.085 0 01-.54 1.316.363.363 0 01-.028.028l-1.2 1.108a.455.455 0 01-.306.121zm.964-13.879l-.468 12.344.376-.348a1.173 1.173 0 00.292-.727l.415-10.261a1.049 1.049 0 00-.316-.795z" transform="translate(-480.499 -185.166)" fill="url(#prefix__prefix__i)"/><path d="M33.563 7.236a.532.532 0 11-1.065 0c0-.294.532-.785.532-.785 0-.045.533.491.533.785zm5.717 0a.533.533 0 11-1.065 0c0-.294.532-.785.532-.785.005-.045.533.491.533.785z" fill="url(#prefix__prefix__j)"/><path d="M480.005 189.617a.948.948 0 00-.688-.293h-11.229a.956.956 0 00-.955 1l.173 3.648h.911l-.176-3.691a.044.044 0 01.013-.033.043.043 0 01.033-.014h11.229a.046.046 0 01.045.047l-.5 13.722a.045.045 0 01-.045.044h-11.031a.955.955 0 00.955.911h10.072a.953.953 0 00.955-.921l.5-13.721a.948.948 0 00-.262-.699z" transform="translate(-437.793 -184.356)" fill="url(#prefix__prefix__l)"/><path d="M3.281 0H1.053v1.845H.002v2.044h1.051v2.393a3.136 3.136 0 003.4 3.075h1.314V7.399H4.446a1.163 1.163 0 01-1.163-1.163V3.889h1.462a1.067 1.067 0 001.022-1.072v-.966H3.283zm12.8 6.324a1.164 1.164 0 11-2.328 0v-3.4a1.075 1.075 0 00-1.078-1.076h-1.161v4.188a3.4 3.4 0 106.8 0V1.848h-2.232v4.479m9.921-.5c-.016-2.326-1.279-4.155-3.629-4.155a3.7 3.7 0 00-3.646 3.875 3.564 3.564 0 003.662 3.9 3.745 3.745 0 003.288-1.965l-2.042-.534a1.508 1.508 0 01-1.262.632 1.4 1.4 0 01-1.46-1.263h5.089c.005-.109 0-.373 0-.489m-5.089-1.042a1.48 1.48 0 012.926 0zM9.691 1.848h-.3a3.093 3.093 0 00-3.093 3.1v4.413h2.228v-4.3a1.16 1.16 0 011.168-1.163h1.3V1.856h-1.3z" fill="#e0262b" fill-rule="evenodd"/><path d="M2.292 17.975a3.048 3.048 0 01-1.945-.712.672.672 0 01-.233-.479.418.418 0 01.425-.452.57.57 0 01.315.137 2.294 2.294 0 001.438.575c.753 0 1.163-.37 1.163-.863 0-.6-.629-.835-1.355-1.1-1.464-.52-1.93-1.04-1.93-1.957 0-1.164.876-1.766 2.122-1.766a3 3 0 011.246.274c.288.137.684.4.684.712 0 .26-.123.493-.41.493a.405.405 0 01-.192-.068 2.3 2.3 0 00-1.314-.452c-.712 0-1.191.233-1.191.794 0 .479.439.767 1.205 1.041 1.355.479 2.081.849 2.081 1.971a1.855 1.855 0 01-2.109 1.852zm6.994-.027a.48.48 0 01-.479-.547v-2.328h-2.67v2.328c0 .356-.191.547-.465.547a.481.481 0 01-.479-.547v-5.449c0-.4.205-.547.479-.547s.465.191.465.547v2.191h2.67v-2.191c0-.4.2-.547.479-.547s.465.191.465.547v5.449c0 .355-.204.547-.465.547zm4.053.027c-1.657 0-2.752-1.492-2.752-3.3s1.1-3.313 2.752-3.313 2.779 1.506 2.779 3.313-1.109 3.3-2.779 3.3zm0-5.681c-1.178 0-1.821 1.15-1.821 2.382s.644 2.382 1.821 2.382 1.848-1.149 1.848-2.382-.657-2.382-1.848-2.382zm6.104 3.025h-1.547v2.082c0 .424-.191.547-.465.547s-.479-.123-.479-.547v-5.38a.476.476 0 01.479-.534h2.013a1.917 1.917 0 010 3.833zm.164-2.9h-1.711v1.967h1.711c.534 0 .794-.466.794-.972s-.26-.997-.795-.997zm4.873 2.9h-1.547v2.082c0 .424-.191.547-.465.547s-.479-.123-.479-.547v-5.38a.476.476 0 01.479-.534h2.013a1.917 1.917 0 010 3.833zm.164-2.9h-1.711v1.967h1.711c.534 0 .794-.466.794-.972s-.26-.997-.795-.997zm2.899 5.529c-.273 0-.465-.191-.465-.547v-5.449c0-.356.178-.547.465-.547s.466.15.466.547v5.449c.002.355-.19.547-.466.547zm5.766 0a.421.421 0 01-.37-.191l-2.875-4.381v4.066c0 .343-.178.507-.451.507a.447.447 0 01-.452-.507v-5.517a.455.455 0 01.465-.52.4.4 0 01.37.219l2.86 4.352v-4.053c0-.4.192-.52.451-.52s.452.123.452.52v5.517a.47.47 0 01-.45.508zm6.213-.986a2.715 2.715 0 01-2.2 1.013c-1.657 0-2.779-1.4-2.779-3.3 0-1.944 1.178-3.313 2.766-3.313a2.361 2.361 0 011.862.821.584.584 0 01.137.369.443.443 0 01-.438.48.393.393 0 01-.3-.123 1.848 1.848 0 00-1.26-.575c-1.109 0-1.807 1.068-1.807 2.341s.617 2.4 1.821 2.4a1.862 1.862 0 001.383-.547v-1.055h-1.178a.467.467 0 010-.93h1.622c.274 0 .466.2.466.547v1.52a.6.6 0 01-.095.352z" fill="#e40084"/><path d="M1.066 24.973c-.5 0-.837-.279-.837-.96v-1.125a.2.2 0 01.2-.223c.128 0 .184.1.184.223v1.122c0 .4.167.6.458.6a.472.472 0 00.458-.53c0-.48-.38-.469-.5-.58s-.033-.246.05-.352l.312-.4a.225.225 0 01.3-.061c.095.061.089.178.005.285l-.279.352a.727.727 0 01.491.742.811.811 0 01-.842.907zm1.088-2.578h-.748a.173.173 0 01-.19-.179v-.156h-.134c-.162 0-.234-.078-.234-.178s.067-.184.234-.184h.285c.151 0 .229.073.229.2v.145h.558c.178 0 .245.084.245.173s-.072.179-.245.179zm2.872 2.578a.841.841 0 01-.949-.854.625.625 0 01.669-.67c.2 0 .335.067.335.229a.156.156 0 01-.167.162c-.073 0-.123-.017-.184-.017a.276.276 0 00-.273.3.493.493 0 00.558.486c.307 0 .586-.223.586-.77 0-.469-.212-.8-.659-.8a1.1 1.1 0 00-.558.151.231.231 0 01-.123.05.186.186 0 01-.2-.19.218.218 0 01.078-.168 1.326 1.326 0 01.8-.212c.631 0 1.038.357 1.038 1.172s-.418 1.131-.951 1.131zm4.071 0c-.53 0-.882-.3-.882-.982v-1.105c0-.145.073-.223.19-.223s.19.061.19.223v1.133c0 .391.184.586.5.586s.5-.2.5-.586v-1.652c0-.162.067-.223.19-.223s.19.078.19.223v1.624c.004.68-.354.982-.878.982zm4.745 0c-.123 0-.19-.078-.19-.223v-1.122c0-.391-.129-.6-.452-.6a.54.54 0 00-.552.6v1.117c0 .134-.061.223-.19.223s-.19-.078-.19-.223v-1.86c0-.156.073-.223.19-.223s.19.05.19.223v.073a.7.7 0 01.614-.3c.48 0 .77.251.77.932v1.155c-.001.138-.063.228-.19.228zm-.062-2.578h-1.261c-.167 0-.251-.056-.251-.173s.084-.184.251-.184h1.133v-.156a.19.19 0 11.38 0v.329c-.001.117-.089.184-.252.184zm.061-.821a.18.18 0 01-.19-.184v-.346a.19.19 0 01.38 0v.346a.18.18 0 01-.19.184zm3.024 1.161v2.015c0 .145-.061.223-.19.223s-.19-.061-.19-.223v-2.127c0-.34.335-.374.335-.608 0-.117-.128-.2-.285-.2a.6.6 0 00-.407.151.226.226 0 01-.14.05.186.186 0 01-.2-.19.243.243 0 01.084-.173.983.983 0 01.636-.206c.407 0 .714.2.714.53.006.383-.357.407-.357.758zm3.293 2.238c-.5 0-.837-.279-.837-.96v-1.125c0-.134.073-.223.2-.223s.184.1.184.223v1.122c0 .4.168.6.458.6a.472.472 0 00.458-.53c0-.48-.379-.469-.5-.58s-.033-.246.05-.352l.312-.4a.225.225 0 01.3-.061c.095.061.089.178.006.285l-.279.352a.727.727 0 01.491.742.811.811 0 01-.843.907zm.592-2.579a.18.18 0 01-.19-.184v-.457a.19.19 0 01.379 0v.457a.18.18 0 01-.189.184zm5.541 2.568a1.209 1.209 0 01-.781-.246.25.25 0 01-.084-.184.172.172 0 01.173-.179.181.181 0 01.129.05.86.86 0 00.575.19c.29 0 .447-.112.447-.262 0-.2-.262-.262-.547-.346-.608-.173-.759-.368-.759-.692 0-.407.34-.619.848-.619a1.306 1.306 0 01.524.089c.112.05.257.151.257.268a.178.178 0 01-.173.2.189.189 0 01-.084-.033.926.926 0 00-.536-.151c-.279 0-.452.089-.452.24s.184.257.491.329c.58.139.815.307.815.692s-.223.654-.843.654zM26.554 26c-.262 0-.5-.112-.5-.4v-.089h-.056c-.145 0-.223-.056-.223-.19 0-.112.073-.19.223-.19h.194a.206.206 0 01.223.218v.234a.115.115 0 00.128.123c.078 0 .128-.034.128-.123v-.279a.19.19 0 11.38 0v.285c-.001.271-.229.411-.497.411zm.803-3.605h-.748a.173.173 0 01-.19-.179v-.156h-.134c-.162 0-.234-.078-.234-.178s.067-.184.234-.184h.285c.151 0 .229.073.229.2v.145h.558c.178 0 .246.084.246.173s-.073.179-.246.179zm2.528.34v2.015c0 .145-.061.223-.19.223s-.19-.061-.19-.223v-2.127c0-.34.335-.374.335-.608 0-.117-.128-.2-.285-.2a.6.6 0 00-.407.151.225.225 0 01-.14.05.186.186 0 01-.2-.19.244.244 0 01.083-.173.983.983 0 01.636-.206c.408 0 .715.2.715.53.006.383-.357.407-.357.758zm3.199 2.226h-.062a.291.291 0 01-.307-.246l-.184-.809h-.045c-.145 0-.212-.078-.212-.19s.078-.19.223-.19h.145c.15 0 .217.095.251.246l.173.82h.017c.229 0 .536-.273.536-.815 0-.43-.19-.748-.6-.748a.924.924 0 00-.5.14.334.334 0 01-.14.056.17.17 0 01-.184-.184.217.217 0 01.078-.168 1.153 1.153 0 01.742-.212c.575 0 .988.341.988 1.116a1.07 1.07 0 01-.919 1.184zm4.726.012c-.123 0-.19-.061-.19-.223v-1.133c0-.391-.184-.6-.5-.6s-.5.206-.5.6v.045h.4c.134 0 .223.073.223.19a.2.2 0 01-.223.19h-.4v.709c0 .162-.078.223-.19.223s-.19-.078-.19-.223v-1.1c0-.681.352-.982.882-.982s.882.3.882.982v1.1c-.004.143-.066.222-.194.222zM37.811 26c-.112 0-.19-.061-.19-.218v-.273h-.112c-.145 0-.223-.056-.223-.19 0-.112.073-.19.223-.19h.268a.206.206 0 01.223.218v.435c0 .156-.078.218-.189.218zm5.318-1.027c-.112 0-.19-.05-.19-.223v-.073a.669.669 0 01-.581.3c-.446 0-.742-.24-.742-.91v-.447c0-.374-.162-.586-.519-.586-.284 0-.435.168-.435.279 0 .078.145.106.145.212 0 .14-.139.151-.139.346v.7h.05c.151 0 .223.078.223.19s-.123.19-.262.19h-.028c-.223 0-.363-.073-.363-.335v-.748a.372.372 0 01.173-.324.383.383 0 01-.2-.285c0-.318.385-.6.826-.6.58 0 .9.262.9.943v.419c0 .447.134.58.424.58a.542.542 0 00.524-.592v-1.124c0-.145.067-.223.19-.223s.19.089.19.223v1.86c.009.183-.069.228-.186.228z" fill="#606060"/></svg>